<svg xmlns="http://www.w3.org/2000/svg" xmlns:xlink="http://www.w3.org/1999/xlink" width="500" zoomAndPan="magnify" viewBox="0 0 375 374.999991" height="500" preserveAspectRatio="xMidYMid meet" version="1.0"><defs><clipPath id="1c33058b85"><path d="M 187.5 0 C 83.945312 0 0 83.945312 0 187.5 C 0 291.054688 83.945312 375 187.5 375 C 291.054688 375 375 291.054688 375 187.5 C 375 83.945312 291.054688 0 187.5 0 " clip-rule="nonzero"/></clipPath><clipPath id="e0818357a1"><path d="M 33.683594 95.535156 L 341.074219 95.535156 L 341.074219 337.738281 L 33.683594 337.738281 Z M 33.683594 95.535156 " clip-rule="nonzero"/></clipPath><clipPath id="c63f4d138c"><path d="M 160.277344 272.835938 L 214.722656 272.835938 L 214.722656 327.28125 L 160.277344 327.28125 Z M 160.277344 272.835938 " clip-rule="nonzero"/></clipPath><clipPath id="8084ef0ad5"><path d="M 187.5 272.835938 C 172.464844 272.835938 160.277344 285.023438 160.277344 300.058594 C 160.277344 315.09375 172.464844 327.28125 187.5 327.28125 C 202.535156 327.28125 214.722656 315.09375 214.722656 300.058594 C 214.722656 285.023438 202.535156 272.835938 187.5 272.835938 " clip-rule="nonzero"/></clipPath><clipPath id="97b57d90aa"><path d="M 92.300781 211.082031 L 123.34375 211.082031 L 123.34375 242.125 L 92.300781 242.125 Z M 92.300781 211.082031 " clip-rule="nonzero"/></clipPath><clipPath id="061beb64c3"><path d="M 107.824219 211.082031 C 99.25 211.082031 92.300781 218.03125 92.300781 226.601562 C 92.300781 235.175781 99.25 242.125 107.824219 242.125 C 116.394531 242.125 123.34375 235.175781 123.34375 226.601562 C 123.34375 218.03125 116.394531 211.082031 107.824219 211.082031 " clip-rule="nonzero"/></clipPath><clipPath id="40ac00bd3e"><path d="M 101.339844 216.519531 L 132.382812 216.519531 L 132.382812 251.925781 L 101.339844 251.925781 Z M 101.339844 216.519531 " clip-rule="nonzero"/></clipPath><clipPath id="559188c297"><path d="M 116.863281 216.519531 C 108.289062 216.519531 101.339844 224.394531 101.339844 234.113281 C 101.339844 243.832031 108.289062 251.707031 116.863281 251.707031 C 125.433594 251.707031 132.382812 243.832031 132.382812 234.113281 C 132.382812 224.394531 125.433594 216.519531 116.863281 216.519531 " clip-rule="nonzero"/></clipPath><clipPath id="418dfcbdea"><path d="M 116.863281 226.601562 L 147.902344 226.601562 L 147.902344 257.644531 L 116.863281 257.644531 Z M 116.863281 226.601562 " clip-rule="nonzero"/></clipPath><clipPath id="e7b0fd3fca"><path d="M 132.382812 226.601562 C 123.808594 226.601562 116.863281 233.550781 116.863281 242.125 C 116.863281 250.695312 123.808594 257.644531 132.382812 257.644531 C 140.953125 257.644531 147.902344 250.695312 147.902344 242.125 C 147.902344 233.550781 140.953125 226.601562 132.382812 226.601562 " clip-rule="nonzero"/></clipPath><clipPath id="4c0c9f1dda"><path d="M 157.160156 242.5 L 217.839844 242.5 L 217.839844 303.175781 L 157.160156 303.175781 Z M 157.160156 242.5 " clip-rule="nonzero"/></clipPath><clipPath id="fe86a11fbc"><path d="M 187.5 242.5 C 170.746094 242.5 157.160156 256.082031 157.160156 272.835938 C 157.160156 289.59375 170.746094 303.175781 187.5 303.175781 C 204.253906 303.175781 217.839844 289.59375 217.839844 272.835938 C 217.839844 256.082031 204.253906 242.5 187.5 242.5 " clip-rule="nonzero"/></clipPath><clipPath id="8536730e23"><path d="M 151.457031 257.644531 L 179.101562 257.644531 L 179.101562 272.835938 L 151.457031 272.835938 Z M 151.457031 257.644531 " clip-rule="nonzero"/></clipPath><clipPath id="35c6adc5fa"><path d="M 136.917969 242.5 L 154.074219 242.5 L 154.074219 265.242188 L 136.917969 265.242188 Z M 136.917969 242.5 " clip-rule="nonzero"/></clipPath><clipPath id="cc34f52fe2"><path d="M 129.515625 246.273438 L 157.160156 246.273438 L 157.160156 261.464844 L 129.515625 261.464844 Z M 129.515625 246.273438 " clip-rule="nonzero"/></clipPath><clipPath id="d739f48203"><path d="M 247.628906 216.519531 L 278.78125 216.519531 L 278.78125 242.125 L 247.628906 242.125 Z M 247.628906 216.519531 " clip-rule="nonzero"/></clipPath><clipPath id="2085802c9d"><path d="M 245.160156 223.398438 L 269.480469 223.398438 L 269.480469 250 L 245.160156 250 Z M 245.160156 223.398438 " clip-rule="nonzero"/></clipPath><clipPath id="330056d459"><path d="M 196.632812 257.644531 L 224.277344 257.644531 L 224.277344 272.835938 L 196.632812 272.835938 Z M 196.632812 257.644531 " clip-rule="nonzero"/></clipPath><clipPath id="7fb640479b"><path d="M 231.339844 227.996094 L 258.984375 227.996094 L 258.984375 243.191406 L 231.339844 243.191406 Z M 231.339844 227.996094 " clip-rule="nonzero"/></clipPath><clipPath id="0604e6698e"><path d="M 225 225 L 259 225 L 259 259 L 225 259 Z M 225 225 " clip-rule="nonzero"/></clipPath><clipPath id="ff8f1910af"><path d="M 225.105469 225.8125 L 258.355469 225.1875 L 258.984375 258.433594 L 225.734375 259.0625 Z M 225.105469 225.8125 " clip-rule="nonzero"/></clipPath><clipPath id="2936038af0"><path d="M 241.730469 225.5 C 232.550781 225.671875 225.246094 233.257812 225.417969 242.4375 C 225.59375 251.621094 233.175781 258.921875 242.359375 258.75 C 251.539062 258.574219 258.84375 250.992188 258.667969 241.808594 C 258.496094 232.628906 250.914062 225.324219 241.730469 225.5 " clip-rule="nonzero"/></clipPath><clipPath id="163d9f2e3d"><path d="M 212 235 L 251 235 L 251 272 L 212 272 Z M 212 235 " clip-rule="nonzero"/></clipPath><clipPath id="36786047e6"><path d="M 212.183594 255.796875 L 240.242188 234.613281 L 251.894531 250.046875 L 223.835938 271.230469 Z M 212.183594 255.796875 " clip-rule="nonzero"/></clipPath><clipPath id="57ed137953"><path d="M 212.183594 255.796875 L 238.945312 235.59375 L 250.492188 250.886719 L 223.730469 271.089844 Z M 212.183594 255.796875 " clip-rule="nonzero"/></clipPath><clipPath id="3ebc5e0df5"><path d="M 160.277344 309.75 L 215 309.75 L 215 375 L 160.277344 375 Z M 160.277344 309.75 " clip-rule="nonzero"/></clipPath><clipPath id="f027d4e6b3"><path d="M 214.722656 309.75 L 214.722656 394.714844 L 187.5 385.421875 L 160.277344 394.714844 L 160.277344 309.75 L 214.722656 309.75 " clip-rule="nonzero"/></clipPath><clipPath id="161cc0c374"><path d="M 131.25 288.28125 L 243.75 288.28125 L 243.75 375 L 131.25 375 Z M 131.25 288.28125 " clip-rule="nonzero"/></clipPath><clipPath id="0b02ad42b6"><path d="M 187.5 288.28125 L 243.75 386.71875 L 131.25 386.71875 L 187.5 288.28125 " clip-rule="nonzero"/></clipPath><clipPath id="ecefe0cc81"><path d="M 134.78125 295.054688 L 240.25 295.054688 L 240.25 375 L 134.78125 375 Z M 134.78125 295.054688 " clip-rule="nonzero"/></clipPath><clipPath id="ba370e6b6d"><path d="M 187.5 295.054688 C 158.382812 295.054688 134.78125 382.300781 134.78125 489.929688 C 134.78125 597.554688 158.382812 684.804688 187.5 684.804688 C 216.617188 684.804688 240.21875 597.554688 240.21875 489.929688 C 240.21875 382.300781 216.617188 295.054688 187.5 295.054688 " clip-rule="nonzero"/></clipPath></defs><g clip-path="url(#1c33058b85)"><rect x="-37.5" width="450" fill="#000000" y="-37.499999" height="449.999989" fill-opacity="1"/></g><g clip-path="url(#e0818357a1)"><path fill="#ffffff" d="M 85.601562 165.171875 C 85.679688 165.269531 85.757812 165.378906 85.832031 165.484375 C 92.109375 173.992188 99.925781 180.527344 108.304688 186.261719 C 108.335938 186.285156 108.375 186.25 108.359375 186.21875 C 102.363281 171.648438 99.664062 156.46875 100.621094 142.328125 C 101.824219 124.425781 108.855469 108.164062 122.390625 96.75 C 124.109375 95.300781 126.671875 95.523438 128.113281 97.246094 C 129.558594 98.96875 129.335938 101.535156 127.621094 102.980469 C 115.910156 112.855469 109.816406 127.097656 108.753906 142.871094 C 107.683594 158.761719 111.703125 176.179688 120.222656 192.3125 C 121.164062 193.320312 122.582031 194.824219 123.527344 195.828125 C 127.3125 198.09375 131.09375 200.335938 134.796875 202.652344 C 134.832031 202.671875 134.863281 202.640625 134.855469 202.609375 C 132.203125 195.421875 131.007812 187.734375 131.089844 180.273438 C 131.238281 166.089844 136.023438 152.578125 144.15625 144.726562 L 144.171875 144.714844 L 144.21875 144.667969 C 145.773438 143.1875 148.253906 142.992188 149.863281 144.414062 C 151.675781 146.019531 151.699219 148.800781 149.980469 150.441406 L 149.789062 150.625 C 143.21875 156.972656 139.351562 168.273438 139.222656 180.339844 C 139.09375 192.507812 142.804688 205.296875 151.417969 214.457031 C 151.421875 214.460938 151.421875 214.460938 151.421875 214.460938 C 161.492188 222.925781 169.929688 233.445312 174.847656 248.695312 C 175.539062 250.839844 174.359375 253.136719 172.21875 253.824219 C 170.078125 254.511719 167.785156 253.335938 167.101562 251.191406 C 159.164062 226.617188 140.140625 215.25 120.753906 203.667969 C 119.355469 202.832031 117.957031 202 116.5625 201.160156 C 116.398438 201.074219 116.242188 200.976562 116.089844 200.875 C 103.011719 192.980469 90.097656 184.507812 80.09375 171.421875 C 80.089844 171.414062 80.082031 171.410156 80.074219 171.40625 C 68.335938 168.636719 58.394531 163.632812 50.65625 157.023438 C 42.246094 149.839844 36.460938 140.769531 33.8125 130.613281 C 33.253906 128.433594 34.558594 126.207031 36.730469 125.640625 C 38.910156 125.078125 41.132812 126.390625 41.691406 128.566406 C 43.910156 137.074219 48.808594 144.71875 55.953125 150.824219 C 60.707031 154.882812 66.460938 158.261719 73.101562 160.765625 C 73.136719 160.777344 73.164062 160.742188 73.148438 160.710938 C 67.425781 150.195312 64.242188 138.828125 64.324219 128.355469 C 64.414062 116.148438 68.871094 105.136719 78.765625 97.847656 C 79.511719 97.296875 80.300781 96.765625 81.125 96.25 C 82.957031 95.109375 85.453125 95.460938 86.722656 97.207031 C 88.140625 99.160156 87.574219 101.871094 85.558594 103.101562 C 84.878906 103.515625 84.21875 103.960938 83.585938 104.429688 C 75.960938 110.042969 72.53125 118.707031 72.457031 128.386719 C 72.378906 138.570312 75.9375 149.859375 82.214844 160.113281 C 83.261719 161.828125 84.394531 163.511719 85.601562 165.171875 Z M 207.660156 251.191406 C 206.972656 253.335938 204.679688 254.511719 202.539062 253.824219 C 200.398438 253.136719 199.21875 250.839844 199.910156 248.695312 C 204.828125 233.445312 213.269531 222.921875 223.339844 214.460938 C 223.339844 214.457031 223.34375 214.457031 223.34375 214.457031 C 231.957031 205.296875 235.664062 192.503906 235.539062 180.339844 C 235.410156 168.273438 231.539062 156.972656 224.976562 150.625 L 224.929688 150.582031 C 223.375 149.101562 223.058594 146.628906 224.390625 144.945312 C 225.90625 143.050781 228.675781 142.886719 230.394531 144.527344 L 230.585938 144.714844 L 230.601562 144.726562 C 238.738281 152.574219 243.523438 166.089844 243.675781 180.273438 C 243.753906 187.734375 242.558594 195.421875 239.90625 202.609375 C 239.894531 202.640625 239.929688 202.671875 239.960938 202.652344 C 243.671875 200.335938 247.449219 198.089844 251.234375 195.828125 C 252.179688 194.824219 253.59375 193.316406 254.539062 192.308594 C 263.054688 176.179688 267.078125 158.761719 266.003906 142.871094 C 264.945312 127.097656 258.847656 112.855469 247.140625 102.980469 C 245.335938 101.464844 245.183594 98.703125 246.878906 96.992188 C 248.40625 95.445312 250.925781 95.519531 252.585938 96.929688 C 265.980469 108.328125 272.941406 124.519531 274.140625 142.328125 C 275.09375 156.46875 272.394531 171.648438 266.398438 186.21875 C 266.382812 186.25 266.425781 186.285156 266.453125 186.261719 C 274.832031 180.527344 282.652344 173.992188 288.925781 165.484375 C 288.996094 165.378906 289.078125 165.269531 289.160156 165.171875 C 290.367188 163.511719 291.496094 161.828125 292.542969 160.113281 C 298.824219 149.859375 302.378906 138.570312 302.300781 128.386719 C 302.226562 118.707031 298.796875 110.042969 291.171875 104.429688 C 290.605469 104.011719 290.015625 103.609375 289.410156 103.230469 C 287.59375 102.09375 286.71875 99.789062 287.652344 97.851562 C 288.714844 95.648438 291.410156 94.890625 293.449219 96.132812 C 294.335938 96.683594 295.1875 97.257812 295.992188 97.847656 C 305.890625 105.136719 310.34375 116.148438 310.4375 128.355469 C 310.519531 138.828125 307.332031 150.195312 301.609375 160.710938 C 301.589844 160.742188 301.621094 160.777344 301.65625 160.765625 C 308.296875 158.261719 314.054688 154.882812 318.808594 150.824219 C 325.949219 144.71875 330.851562 137.074219 333.066406 128.566406 C 333.632812 126.390625 335.851562 125.078125 338.027344 125.640625 C 340.203125 126.207031 341.511719 128.433594 340.941406 130.613281 C 338.296875 140.769531 332.511719 149.839844 324.101562 157.023438 C 316.363281 163.632812 306.421875 168.636719 294.6875 171.40625 C 294.679688 171.410156 294.671875 171.414062 294.664062 171.421875 C 284.660156 184.507812 271.746094 192.980469 258.667969 200.875 C 258.519531 200.976562 258.359375 201.074219 258.195312 201.160156 C 256.800781 202 255.402344 202.832031 254.007812 203.667969 C 234.621094 215.25 215.59375 226.617188 207.660156 251.191406 Z M 162.441406 255.28125 C 163.316406 257.492188 162.128906 260.007812 159.800781 260.695312 C 157.769531 261.292969 155.613281 260.109375 154.824219 258.144531 C 149.140625 243.855469 140.34375 233.386719 130.273438 226.730469 C 120.296875 220.136719 109.050781 217.28125 98.355469 218.167969 C 98.339844 218.167969 98.324219 218.1875 98.320312 218.203125 C 97.375 228.964844 100.132812 236.003906 105.535156 241.21875 C 111.847656 247.308594 121.957031 251.410156 134.054688 255.910156 C 143.660156 259.484375 149.539062 262.296875 153.914062 266.980469 C 158.292969 271.675781 160.722656 277.789062 163.386719 287.917969 C 165.210938 294.851562 166.371094 302.304688 167.785156 311.4375 C 168.042969 313.082031 168.304688 314.78125 168.652344 316.9375 C 168.652344 316.953125 168.65625 316.960938 168.664062 316.964844 L 183.425781 326.324219 C 185.839844 327.855469 188.917969 327.855469 191.332031 326.324219 L 206.09375 316.964844 C 206.101562 316.960938 206.109375 316.953125 206.113281 316.9375 C 206.453125 314.777344 206.71875 313.074219 206.972656 311.433594 C 208.390625 302.300781 209.546875 294.851562 211.371094 287.917969 C 214.035156 277.789062 216.464844 271.675781 220.847656 266.980469 C 225.21875 262.296875 231.097656 259.484375 240.703125 255.910156 C 252.804688 251.410156 262.910156 247.308594 269.226562 241.21875 C 274.625 236.003906 277.390625 228.964844 276.441406 218.203125 C 276.4375 218.1875 276.421875 218.167969 276.402344 218.167969 C 265.710938 217.28125 254.464844 220.136719 244.488281 226.730469 C 234.382812 233.40625 225.566406 243.921875 219.878906 258.28125 C 219.007812 260.488281 216.4375 261.503906 214.277344 260.425781 C 212.367188 259.476562 211.589844 257.113281 212.382812 255.125 C 218.71875 239.1875 228.628906 227.453125 240.019531 219.921875 C 252.699219 211.542969 267.199219 208.386719 280.710938 210.445312 L 280.710938 210.449219 C 282.449219 210.703125 283.882812 212.078125 284.140625 213.910156 C 286.386719 229.488281 282.695312 239.550781 274.871094 247.097656 C 267.453125 254.257812 256.539062 258.714844 243.539062 263.550781 C 235.136719 266.675781 230.097656 269.019531 226.8125 272.539062 C 223.53125 276.054688 221.558594 281.210938 219.25 289.992188 C 217.5 296.644531 216.382812 303.847656 215.011719 312.675781 C 214.613281 315.230469 214.199219 317.910156 213.867188 319.976562 C 213.710938 321.128906 213.0625 322.203125 212.007812 322.867188 L 189.636719 337.054688 C 188.339844 337.917969 186.613281 337.996094 185.210938 337.113281 L 162.753906 322.867188 L 162.757812 322.867188 C 161.800781 322.265625 161.09375 321.265625 160.90625 320.058594 C 160.570312 317.984375 160.148438 315.269531 159.746094 312.683594 C 158.375 303.851562 157.257812 296.648438 155.507812 289.992188 C 153.199219 281.210938 151.226562 276.054688 147.949219 272.539062 C 144.660156 269.019531 139.625 266.675781 131.21875 263.550781 C 118.21875 258.714844 107.308594 254.257812 99.886719 247.097656 C 92.101562 239.582031 88.402344 229.582031 90.585938 214.128906 C 90.75 212.289062 92.144531 210.730469 94.046875 210.445312 C 107.558594 208.386719 122.058594 211.542969 134.738281 219.921875 C 146.167969 227.472656 156.101562 239.265625 162.441406 255.28125 " fill-opacity="1" fill-rule="nonzero"/></g><g clip-path="url(#c63f4d138c)"><g clip-path="url(#8084ef0ad5)"><path fill="#ffffff" d="M 160.277344 272.835938 L 214.722656 272.835938 L 214.722656 327.28125 L 160.277344 327.28125 Z M 160.277344 272.835938 " fill-opacity="1" fill-rule="nonzero"/></g></g><g clip-path="url(#97b57d90aa)"><g clip-path="url(#061beb64c3)"><path fill="#ffffff" d="M 92.300781 211.082031 L 123.34375 211.082031 L 123.34375 242.125 L 92.300781 242.125 Z M 92.300781 211.082031 " fill-opacity="1" fill-rule="nonzero"/></g></g><g clip-path="url(#40ac00bd3e)"><g clip-path="url(#559188c297)"><path fill="#ffffff" d="M 101.339844 216.519531 L 132.382812 216.519531 L 132.382812 251.925781 L 101.339844 251.925781 Z M 101.339844 216.519531 " fill-opacity="1" fill-rule="nonzero"/></g></g><g clip-path="url(#418dfcbdea)"><g clip-path="url(#e7b0fd3fca)"><path fill="#ffffff" d="M 116.863281 226.601562 L 147.902344 226.601562 L 147.902344 257.644531 L 116.863281 257.644531 Z M 116.863281 226.601562 " fill-opacity="1" fill-rule="nonzero"/></g></g><g clip-path="url(#4c0c9f1dda)"><g clip-path="url(#fe86a11fbc)"><path fill="#ffffff" d="M 157.160156 242.5 L 217.839844 242.5 L 217.839844 303.175781 L 157.160156 303.175781 Z M 157.160156 242.5 " fill-opacity="1" fill-rule="nonzero"/></g></g><g clip-path="url(#8536730e23)"><path fill="#ffffff" d="M 151.457031 257.644531 L 179.582031 257.644531 L 179.582031 273.464844 L 151.457031 273.464844 Z M 151.457031 257.644531 " fill-opacity="1" fill-rule="nonzero"/></g><g clip-path="url(#35c6adc5fa)"><path fill="#ffffff" d="M 136.917969 242.5 L 154.496094 242.5 L 154.496094 265.351562 L 136.917969 265.351562 Z M 136.917969 242.5 " fill-opacity="1" fill-rule="nonzero"/></g><g clip-path="url(#cc34f52fe2)"><path fill="#ffffff" d="M 129.515625 246.273438 L 157.640625 246.273438 L 157.640625 262.09375 L 129.515625 262.09375 Z M 129.515625 246.273438 " fill-opacity="1" fill-rule="nonzero"/></g><g clip-path="url(#d739f48203)"><path fill="#ffffff" d="M 247.628906 216.519531 L 279.269531 216.519531 L 279.269531 242.886719 L 247.628906 242.886719 Z M 247.628906 216.519531 " fill-opacity="1" fill-rule="nonzero"/></g><g clip-path="url(#2085802c9d)"><path fill="#ffffff" d="M 245.160156 223.398438 L 269.769531 223.398438 L 269.769531 249.765625 L 245.160156 249.765625 Z M 245.160156 223.398438 " fill-opacity="1" fill-rule="nonzero"/></g><g clip-path="url(#330056d459)"><path fill="#ffffff" d="M 196.632812 257.644531 L 224.757812 257.644531 L 224.757812 273.464844 L 196.632812 273.464844 Z M 196.632812 257.644531 " fill-opacity="1" fill-rule="nonzero"/></g><g clip-path="url(#7fb640479b)"><path fill="#ffffff" d="M 231.339844 227.996094 L 259.464844 227.996094 L 259.464844 243.816406 L 231.339844 243.816406 Z M 231.339844 227.996094 " fill-opacity="1" fill-rule="nonzero"/></g><g clip-path="url(#0604e6698e)"><g clip-path="url(#ff8f1910af)"><g clip-path="url(#2936038af0)"><path fill="#ffffff" d="M 225.105469 225.8125 L 258.355469 225.1875 L 258.984375 258.433594 L 225.734375 259.0625 Z M 225.105469 225.8125 " fill-opacity="1" fill-rule="nonzero"/></g></g></g><g clip-path="url(#163d9f2e3d)"><g clip-path="url(#36786047e6)"><g clip-path="url(#57ed137953)"><path fill="#ffffff" d="M 212.183594 255.796875 L 238.839844 235.671875 L 250.492188 251.105469 L 223.835938 271.230469 Z M 212.183594 255.796875 " fill-opacity="1" fill-rule="nonzero"/></g></g></g><g clip-path="url(#3ebc5e0df5)"><g clip-path="url(#f027d4e6b3)"><path fill="#ffffff" d="M 160.277344 309.75 L 215.121094 309.75 L 215.121094 394.339844 L 160.277344 394.339844 Z M 160.277344 309.75 " fill-opacity="1" fill-rule="nonzero"/></g></g><g clip-path="url(#161cc0c374)"><g clip-path="url(#0b02ad42b6)"><path fill="#ffffff" d="M 131.25 288.28125 L 243.75 288.28125 L 243.75 386.71875 L 131.25 386.71875 Z M 131.25 288.28125 " fill-opacity="1" fill-rule="nonzero"/></g></g><g clip-path="url(#ecefe0cc81)"><g clip-path="url(#ba370e6b6d)"><path fill="#ffffff" d="M 134.78125 295.054688 L 240.25 295.054688 L 240.25 685.289062 L 134.78125 685.289062 Z M 134.78125 295.054688 " fill-opacity="1" fill-rule="nonzero"/></g></g></svg>